<?xml version="1.0" standalone="no"?>
<!DOCTYPE svg PUBLIC "-//W3C//DTD SVG 1.1//EN" "http://www.w3.org/Graphics/SVG/1.1/DTD/svg11.dtd" >
<svg xmlns="http://www.w3.org/2000/svg">
<metadata>Generated by IcoMoon</metadata>
<defs>
<font id="icomoon" horiz-adv-x="1024">
<font-face units-per-em="1024" ascent="960" descent="-64" />
<missing-glyph horiz-adv-x="1024" />
<glyph unicode="&#x20;" horiz-adv-x="512" d="" />
<glyph unicode="&#xe900;" glyph-name="arrow-down-chevron" d="M1013.76 673.28l-71.68 81.92-440.32-440.32-430.080 440.32-71.68-81.92 501.76-501.76 71.68 71.68 440.32 430.080z" />
<glyph unicode="&#xe901;" glyph-name="arrow-down-circle" d="M512-64c-282.77 0-512 229.23-512 512s229.23 512 512 512c282.77 0 512-229.23 512-512v0c-0.806-282.445-229.555-511.194-511.923-512h-0.077zM512 931.556c-267.060 0-483.556-216.495-483.556-483.556s216.495-483.556 483.556-483.556c267.060 0 483.556 216.495 483.556 483.556v0c0 267.060-216.495 483.556-483.556 483.556v0zM651.378 422.4l-125.156-128v361.244h-28.444v-361.244l-128 128-19.911-19.911 162.133-162.133 162.133 162.133-22.756 19.911z" />
<glyph unicode="&#xe902;" glyph-name="arrow-left-long" d="M188.284 477.729h842.323v-66.065h-842.323v66.065zM0 444.697l221.316 201.497v-406.297l-221.316 204.8z" />
<glyph unicode="&#xe903;" glyph-name="arrow-right" d="M559.787 768.853l307.2-300.373h-866.987v-68.267h866.987l-307.2-307.2 47.787-47.787 389.12 389.12-389.12 389.12-47.787-54.613z" />
<glyph unicode="&#xe904;" glyph-name="arrow-right-long" d="M0 474.426h842.323v-66.065h-842.323v66.065zM1030.606 441.394l-221.316-201.497v406.297l221.316-204.8z" />
<glyph unicode="&#xe905;" glyph-name="certified-trainers" d="M890.592 463.624l-4.086 0.481v481.472c0 0.001 0 0.001 0 0.002 0 7.965-6.457 14.423-14.423 14.423-0.085 0-0.169-0.001-0.253-0.002h-854.763c-0.072 0.001-0.156 0.002-0.24 0.002-7.965 0-14.423-6.457-14.423-14.423 0-0.001 0-0.001 0-0.002v0-995.155c0-0.001 0-0.001 0-0.002 0-7.965 6.457-14.423 14.423-14.423 0.085 0 0.169 0.001 0.253 0.002h854.522c0.072-0.001 0.156-0.002 0.24-0.002 7.965 0 14.423 6.457 14.423 14.423 0 0.001 0 0.001 0 0.002v0 105.285l53.604-39.902c2.411-1.836 5.466-2.942 8.778-2.942 4.749 0 8.968 2.273 11.627 5.79l0.027 0.037c1.8 2.319 2.886 5.271 2.886 8.477 0 0.062 0 0.124-0.001 0.186v-0.009 170.907l1.923 1.442c34.498 27.367 56.426 69.285 56.426 116.326 0 35.37-12.398 67.845-33.084 93.315l0.215-0.274c-23.906 29.363-58.26 49.42-97.319 54.485l-0.754 0.080zM857.179-35.155h-825.45v966.31h825.45v-467.050l-4.327-0.481c-75.478-8.894-132.447-72.353-132.447-147.591 0-0.115-0.001-0.251-0.001-0.387 0-46.941 21.964-88.752 56.176-115.716l0.313-0.238 1.923-1.442v-170.907c0-0.001 0-0.001 0-0.002 0-7.965 6.457-14.423 14.423-14.423 0.085 0 0.169 0.001 0.253 0.002h-0.013c0.006 0 0.012 0 0.019 0 3.336 0 6.419 1.082 8.917 2.914l-0.042-0.030 55.046 40.864v-91.823zM934.1 56.188l-54.325 40.383c-2.421 1.802-5.471 2.885-8.774 2.885s-6.352-1.083-8.813-2.913l0.039 0.028-54.085-40.383v124.274l6.731-2.644c11.083-4.526 23.981-7.981 37.405-9.767l0.814-0.089c3.125-0.481 6.25-0.721 9.375-0.962s6.25-0.24 9.375-0.24c6.657 0.045 13.163 0.48 19.554 1.284l-0.805-0.083 9.615 1.442c10.465 2.089 19.641 4.911 28.399 8.538l-0.996-0.366 6.731 2.644v-124.034zM892.034 197.529c-6.262-1.177-13.489-1.875-20.871-1.923h-0.042c-0.179-0.001-0.39-0.002-0.601-0.002-6.669 0-13.196 0.613-19.526 1.785l0.657-0.101c-50.652 8.014-90.382 46.689-99.876 96.117l-0.121 0.754c-1.189 6.484-1.887 13.965-1.923 21.602v0.032c-0.004 0.389-0.007 0.849-0.007 1.309 0 67.042 54.348 121.39 121.39 121.39s121.39-54.348 121.39-121.39c0-59.65-43.024-109.25-99.732-119.463l-0.738-0.11zM224.511 325.408h440.128v-28.845h-440.128v28.845zM224.511 248.488h440.128v-28.845h-440.128v28.845zM224.511 171.568h440.128v-28.845h-440.128v28.845zM224.511 94.648h440.128v-28.845h-440.128v28.845zM244.943 628.762v-112.255l162.013-23.076v135.331zM406.956 810.967l-162.013-23.076v-112.255h162.013zM643.966 675.636v169.465l-189.897-26.922v-142.543zM454.069 486.46l189.897-26.922v169.465h-189.897z" />
<glyph unicode="&#xe906;" glyph-name="compact-groups" d="M626.738 409.577h288.507v202.62h-29.25v-171.775h-230.008v171.775h-29.25v-126.039h-532.874v442.466l641.097 0.266 0.266-113.276-3.191-1.861c-24.398-15.020-40.419-41.581-40.419-71.884 0-0.155 0-0.31 0.001-0.466v0.024c0-46.002 35.631-83.228 79.506-83.228s79.506 37.227 79.506 83.228-35.631 82.962-79.24 83.228h-6.648l-0.266 135.346h-699.862v-504.688h562.123zM770.858 793.278c14.221-0.008 27.007-6.146 35.861-15.914l0.036-0.041c8.828-9.408 14.252-22.102 14.252-36.064 0-1.439-0.058-2.864-0.171-4.274l0.012 0.186c-1.595-26.325-22.868-47.597-48.129-48.661h-1.861c-0.059 0-0.129 0-0.199 0-13.18 0-25.128 5.278-33.844 13.835l0.007-0.007c-10.008 9.683-16.22 23.235-16.22 38.238 0 0.019 0 0.037 0 0.056v-0.003c0 29.25 22.602 52.649 50.256 52.649zM64.881 222.114c0-46.002 35.631-83.228 79.506-83.228s79.506 37.227 79.506 83.228-35.631 83.228-79.506 83.228-79.506-37.493-79.506-83.228zM194.377 221.848c0-28.718-22.602-52.117-50.256-52.117s-50.256 23.4-50.256 52.117 22.602 52.117 50.256 52.117 50.256-23.4 50.256-52.117zM29.25 125.59h-29.25v-189.59h288.507v189.59h-29.25v-161.138h-230.008v161.138zM396.73 125.59h-28.984v-189.59h288.241v189.59h-28.984v-161.138h-230.274v161.138zM764.477 125.59h-29.25v-189.59h288.507v189.59h-29.25v-161.138h-230.008v161.138zM879.614 138.885c43.874 0 79.506 37.227 79.506 83.228s-35.631 83.228-79.506 83.228-79.506-37.227-79.506-83.228 35.631-83.228 79.506-83.228zM879.614 273.965c27.654 0 50.256-23.4 50.256-52.117s-22.602-52.117-50.256-52.117-50.256 23.4-50.256 52.117 22.336 52.117 50.256 52.117zM432.361 222.114c0-46.002 35.631-83.228 79.506-83.228s79.506 37.227 79.506 83.228-35.631 83.228-79.506 83.228-79.506-37.493-79.506-83.228zM511.867 273.965c27.654 0 50.256-23.4 50.256-52.117s-22.602-52.117-50.256-52.117-50.256 23.4-50.256 52.117 22.602 52.117 50.256 52.117zM323.606 812.157l-103.437-103.437 103.437-103.437 20.475 20.741-82.696 82.696 82.696 82.696-20.475 20.741zM463.472 605.283l103.437 103.437-103.437 103.437-20.741-20.741 82.696-82.696-82.696-82.696 20.741-20.741z" />
<glyph unicode="&#xe907;" glyph-name="cross" d="M1024-13.163l-457.532 457.532 457.532 464.794-50.837 50.837-457.532-464.794-464.794 464.794-50.837-50.837 464.794-464.794-464.794-457.532 50.837-50.837 464.794 457.532 457.532-457.532 50.837 50.837z" />
<glyph unicode="&#xe908;" glyph-name="c-sharp" d="M407.040 354.56v-53.76c-1.308-13.766-12.811-24.449-26.809-24.449-0.927 0-1.842 0.047-2.745 0.138l0.114-0.009h-56.747c-13.766 1.308-24.449 12.811-24.449 26.809 0 0.927 0.047 1.842 0.138 2.745l-0.009-0.114v212.053c1.308 13.766 12.811 24.449 26.809 24.449 0.927 0 1.842-0.047 2.745-0.138l-0.114 0.009h56.747c7.402-0.843 13.828-4.461 18.312-9.772l0.034-0.042c3.821-4.446 6.148-10.273 6.148-16.643 0-1.052-0.063-2.088-0.187-3.107l0.012 0.123v-48.213h45.227v52.907c-0.46 19.904-9.053 37.715-22.571 50.307l-0.043 0.039c-12.943 12.174-30.421 19.654-49.647 19.654-0.696 0-1.39-0.010-2.081-0.029l0.102 0.002h-56.32c-19.904-0.46-37.715-9.053-50.307-22.571l-0.039-0.043c-12.174-12.943-19.654-30.421-19.654-49.647 0-0.696 0.010-1.39 0.029-2.081l-0.002 0.102v-211.627c0.46-19.904 9.053-37.715 22.571-50.307l0.043-0.039c12.943-12.174 30.421-19.654 49.647-19.654 0.696 0 1.39 0.010 2.081 0.029l-0.102-0.002h56.32c19.904 0.46 37.715 9.053 50.307 22.571l0.039 0.043c12.174 12.943 19.654 30.421 19.654 49.647 0 0.696-0.010 1.39-0.029 2.081l0.002-0.102v48.64zM737.707 587.52h-45.227v-77.653h-84.48v77.653h-45.227v-77.653h-51.627v-45.227h51.627v-110.080h-51.627v-45.227h51.627v-77.653h45.227v77.653h84.48v-77.653h45.227v77.653h51.627v45.227h-51.627v110.080h51.627v45.227h-51.627zM692.053 354.56h-84.48v110.080h84.48zM1007.787 960h-991.573c-8.954 0-16.213-7.259-16.213-16.213v0-991.573c0-8.954 7.259-16.213 16.213-16.213v0h991.147c8.954 0 16.213 7.259 16.213 16.213v991.573c0.008 0.191 0.013 0.416 0.013 0.642 0 8.601-6.972 15.573-15.573 15.573-0.080 0-0.159-0.001-0.239-0.002h0.012zM32.853 927.573h604.587v-96.853h-604.587zM991.147-31.573h-958.293v829.867h958.72v-829.867zM991.147 830.72h-321.28v96.853h321.28zM848.64 879.36c0-9.426-7.832-17.067-17.493-17.067s-17.493 7.641-17.493 17.067c0 9.426 7.832 17.067 17.493 17.067s17.493-7.641 17.493-17.067zM759.467 879.36c0-9.426-7.832-17.067-17.493-17.067s-17.493 7.641-17.493 17.067c0 9.426 7.832 17.067 17.493 17.067s17.493-7.641 17.493-17.067zM937.813 879.36c0-9.426-7.832-17.067-17.493-17.067s-17.493 7.641-17.493 17.067c0 9.426 7.832 17.067 17.493 17.067s17.493-7.641 17.493-17.067z" />
<glyph unicode="&#xe909;" glyph-name="employment" d="M27.385 678.142l276.17-134.82v-108.067h179.268v106.803l276.17 130.818v-61.933l-12.639-1.896c-66.778-9.901-117.125-71.202-117.125-142.614 0-79.417 60.88-143.878 135.873-143.878s135.873 64.671 135.873 143.878c0 66.567-42.553 123.866-103.432 139.876l-10.954 2.949v219.293h-258.265v49.715c0 45.080-33.494 81.735-74.362 81.735h-121.338c-41.078 0-74.362-36.654-74.362-81.735v-49.715h-258.265v-623.121h506.418v-269.429h517.372v331.784h-517.372v-30.334h-479.032zM455.439 467.275h-124.287v99.219h124.287zM875.066 466.222c0-62.986-49.294-114.386-109.963-114.386s-109.963 51.4-109.963 114.386 49.294 114.386 109.963 114.386 109.963-51.4 109.963-114.386zM285.439 878.055c0 27.385 21.066 49.715 46.976 49.715h121.338c25.911 0 46.976-22.33 46.976-49.715v-49.715h-215.291zM27.385 796.32h731.609v-88.897l-279.962-132.713-0.211 31.388h-170.632l0.211-30.545-281.015 137.348zM536.541 234.5h457.124v-269.64h-457.124z" />
<glyph unicode="&#xe90a;" glyph-name="facebook" d="M764.675 960h-132.987c-148.945 0-244.696-98.41-244.696-251.345v-115.699h-132.987c-0.080 0.001-0.174 0.002-0.268 0.002-11.605 0-21.012-9.407-21.012-21.012 0-0.094 0.001-0.188 0.002-0.282v0.014-167.564c-0.001-0.080-0.002-0.174-0.002-0.268 0-11.605 9.407-21.012 21.012-21.012 0.094 0 0.188 0.001 0.282 0.002h132.973v-424.229c-0.001-0.080-0.002-0.174-0.002-0.268 0-11.605 9.407-21.012 21.012-21.012 0.094 0 0.188 0.001 0.282 0.002h174.199c0.080-0.001 0.174-0.002 0.268-0.002 11.605 0 21.012 9.407 21.012 21.012 0 0.094-0.001 0.188-0.002 0.282v-0.014 424.229h155.595c0.080-0.001 0.174-0.002 0.268-0.002 11.605 0 21.012 9.407 21.012 21.012 0 0.094-0.001 0.188-0.002 0.282v-0.014 167.564c-0.796 11.417-9.861 20.482-21.206 21.274l-0.072 0.004h-155.595v98.41c0 47.875 10.639 71.813 73.143 71.813h89.101c0.080-0.001 0.174-0.002 0.268-0.002 11.605 0 21.012 9.407 21.012 21.012 0 0.094-0.001 0.188-0.002 0.282v-0.014 155.595c-1.552 11.257-11.062 19.847-22.597 19.948h-0.010z" />
<glyph unicode="&#xe90b;" glyph-name="frontend-developer" d="M366.215 503.781c-2.871 4.761-8.015 7.896-13.892 7.896-3.026 0-5.857-0.831-8.279-2.278l0.074 0.041-188.362-112.101c-4.724-2.949-7.82-8.119-7.82-14.013s3.096-11.063 7.751-13.972l0.069-0.040 188.362-112.101c2.258-1.359 4.983-2.163 7.896-2.163 0.161 0 0.322 0.002 0.482 0.007l-0.023-0.001c5.887 0.021 11.048 3.108 13.972 7.746l0.040 0.068c1.443 2.357 2.297 5.21 2.297 8.262 0 5.874-3.164 11.009-7.881 13.794l-0.075 0.041-165.457 98.358 164.918 98.358c4.844 2.892 8.038 8.107 8.038 14.068 0 2.951-0.783 5.719-2.152 8.108l0.042-0.080zM658.055 262.872c2.823-4.712 7.903-7.818 13.707-7.818 0.107 0 0.214 0.001 0.321 0.003h-0.016c3.065 0.083 5.929 0.871 8.459 2.206l-0.105-0.050 188.362 112.101c4.724 2.949 7.82 8.119 7.82 14.013s-3.096 11.063-7.751 13.972l-0.069 0.040-188.362 112.101c-2.567 1.793-5.753 2.865-9.189 2.865-8.93 0-16.168-7.239-16.168-16.168 0-6.287 3.588-11.735 8.828-14.41l0.092-0.042 164.918-98.358-164.918-98.358c-4.936-2.749-8.22-7.936-8.22-13.89 0-3.033 0.852-5.868 2.331-8.276l-0.039 0.069zM573.979 504.589l-150.636-224.472c-1.719-2.529-2.744-5.65-2.744-9.011 0-5.526 2.772-10.404 7.001-13.32l0.054-0.035c2.458-1.688 5.499-2.695 8.774-2.695 0.042 0 0.083 0 0.125 0h-0.006c5.608 0.011 10.544 2.874 13.437 7.217l0.037 0.059 150.636 224.472c1.78 2.546 2.844 5.707 2.844 9.117 0 8.855-7.179 16.034-16.034 16.034-5.635 0-10.591-2.907-13.451-7.303l-0.038-0.062zM1002.442 960h-980.884c-8.93 0-16.168-7.239-16.168-16.168v0-991.663c0-8.93 7.239-16.168 16.168-16.168v0h980.884c8.93 0 16.168 7.239 16.168 16.168v0 991.663c0 8.93-7.239 16.168-16.168 16.168v0zM668.295 927.663h317.979v-97.011h-317.979zM37.726 927.663h598.232v-97.011h-598.232zM986.274-31.663h-948.547v829.979h948.547zM827.823 896.404c-9.525 0-17.246-7.721-17.246-17.246s7.721-17.246 17.246-17.246c9.525 0 17.246 7.721 17.246 17.246v0c-0.061 9.5-7.746 17.186-17.241 17.246h-0.006zM739.436 896.404c-9.525 0-17.246-7.721-17.246-17.246s7.721-17.246 17.246-17.246c9.525 0 17.246 7.721 17.246 17.246v0c-0.061 9.5-7.746 17.186-17.241 17.246h-0.006zM916.211 896.404c-9.525 0-17.246-7.721-17.246-17.246s7.721-17.246 17.246-17.246c9.525 0 17.246 7.721 17.246 17.246v0c-0.061 9.5-7.746 17.186-17.241 17.246h-0.006z" />
<glyph unicode="&#xe90c;" glyph-name="java-developer" d="M498.773 388.48c0.163-0.243 0.436-0.401 0.747-0.401s0.584 0.158 0.745 0.397l0.002 0.003c0.302 0.26 0.492 0.642 0.492 1.069 0 0.151-0.024 0.297-0.068 0.434l0.003-0.010c-0.427 0.64-33.493 64.427-32.213 111.36 0.427 17.493 23.253 36.053 47.36 55.68 21.333 17.28 45.44 36.907 59.307 59.307 29.867 48.64-3.413 96.64-3.627 97.28-0.26 0.302-0.642 0.492-1.069 0.492-0.151 0-0.297-0.024-0.434-0.068l0.010 0.003c-0.412-0.224-0.687-0.653-0.687-1.147 0-0.123 0.017-0.242 0.049-0.355l-0.002 0.009c0.817-5.045 1.284-10.861 1.284-16.786 0-19.512-5.062-37.842-13.944-53.748l0.287 0.56c-8.107-14.933-25.6-27.093-45.653-41.173-27.947-19.627-59.52-41.813-76.373-78.293-28.8-62.507 59.947-131.627 63.787-134.613zM535.467 425.813c4.693-5.76 8.747-10.667 10.24-15.573 4.693-15.573-8.533-42.453-8.533-42.667-0.089-0.173-0.14-0.377-0.14-0.593 0-0.348 0.135-0.665 0.354-0.901l-0.001 0.001c0.187-0.199 0.452-0.323 0.747-0.323s0.559 0.124 0.746 0.323v0.001c1.92 1.28 45.44 32.213 37.76 68.48-2.987 14.080-9.813 24.533-16.213 33.707-9.813 14.72-18.347 27.307-6.4 48.853 12.587 22.613 65.707 63.36 71.68 68.053v0c0.313 0.303 0.507 0.727 0.507 1.196 0 0.183-0.029 0.358-0.084 0.523l0.003-0.012c-0.198 0.383-0.592 0.64-1.045 0.64-0.008 0-0.015 0-0.023 0h-0.426c-39.893-15.147-115.2-54.4-115.2-94.507 0-35.2 14.933-53.76 26.027-67.2zM459.093 321.92c8.96 0 18.347 0.213 28.16 0.427 104.96 3.84 143.36 36.053 145.067 37.333 0.265 0.192 0.436 0.501 0.436 0.849 0 0.244-0.084 0.469-0.224 0.647l0.002-0.002c-0.224 0.412-0.653 0.687-1.147 0.687-0.123 0-0.242-0.017-0.355-0.049l0.009 0.002c-37.76-10.24-108.16-14.080-156.8-14.080-54.187 0-82.347 3.84-90.027 7.040l-4.267 1.92 2.773 3.84c4.48 6.187 27.733 14.933 53.76 20.053 0.602 0.13 1.050 0.65 1.067 1.278v0.002c-0.065 0.604-0.572 1.070-1.188 1.070-0.032 0-0.064-0.001-0.096-0.004h0.004c-45.013 0-92.8-7.253-98.133-23.253v0c-0.499-1.383-0.787-2.978-0.787-4.641 0-3.246 1.099-6.236 2.944-8.617l-0.024 0.032c11.093-15.36 54.4-24.533 118.827-24.533zM648.747 378.24c5.12 0 50.133-1.493 54.613-30.080 4.907-29.867-63.36-75.307-64-75.947-0.306-0.244-0.501-0.618-0.501-1.037 0-0.666 0.493-1.218 1.134-1.309l0.007-0.001h0.213c4.267 0.853 104.533 23.040 94.293 79.787-4.907 27.733-20.053 41.6-44.587 41.6-21.12 0-40.96-10.453-41.813-11.093-0.412-0.224-0.687-0.653-0.687-1.147 0-0.123 0.017-0.242 0.049-0.355l-0.002 0.009c0.213 0 0.64-0.427 1.28-0.427zM379.947 291.413c1.067-13.013 33.28-24.32 78.293-27.52 5.12-0.427 10.88-0.64 16.64-0.64 60.8 0 138.453 18.987 139.307 19.2 0.427 0.213 0.853 0.427 0.853 1.067-0.011 0.482-0.169 0.924-0.431 1.287l0.005-0.007-24.96 17.493c-0.236 0.145-0.522 0.231-0.828 0.231-0.084 0-0.167-0.006-0.247-0.019l0.009 0.001c-18.121-4.652-40.112-8.56-62.565-10.917l-2.075-0.177c-14.301-1.631-30.876-2.562-47.669-2.562-0.416 0-0.832 0.001-1.248 0.002h0.064c-33.707 0-63.147 3.627-68.48 8.747l-0.427 0.427-0.213 0.64c-0.495 0.745-0.79 1.66-0.79 2.644 0 0.662 0.133 1.293 0.375 1.867l-0.012-0.032c1.707 4.48 8.533 7.253 8.747 7.253 0.521 0.145 0.896 0.615 0.896 1.173 0 0.114-0.016 0.224-0.045 0.329l0.002-0.009c-0.141 0.501-0.594 0.863-1.131 0.863-0.052 0-0.104-0.003-0.154-0.010l0.006 0.001h-0.213c-16-4.267-34.56-10.88-33.707-21.333zM427.093 238.080l-0.213 1.92c-0.060 0.313-0.095 0.673-0.095 1.041 0 1.941 0.956 3.658 2.424 4.707l0.018 0.012 0.213 0.213c0.322 0.222 0.53 0.589 0.53 1.004 0 0.177-0.038 0.345-0.106 0.497l0.003-0.008c-0.227 0.495-0.712 0.836-1.278 0.853h-0.002c-1.067 0-29.44-0.853-31.147-16.853-0.053-0.499-0.084-1.078-0.084-1.664 0-4.094 1.484-7.841 3.943-10.733l-0.020 0.024c9.813-11.52 38.187-18.773 84.267-21.333 5.76-0.427 11.52-0.427 16.853-0.427 60.373 0 100.48 18.773 102.187 19.627 0.38 0.211 0.632 0.609 0.632 1.067s-0.253 0.856-0.626 1.064l-0.006 0.003-31.36 19.2c-0.201 0.138-0.45 0.22-0.718 0.22-0.048 0-0.095-0.003-0.141-0.008l0.006 0.001s-19.84-4.053-50.56-8.32c-6.031-0.821-13.001-1.289-20.080-1.289-0.591 0-1.18 0.003-1.769 0.010l0.090-0.001c-29.44 0-64 4.693-71.68 8.533zM700.587 178.773c4.053 4.48 4.693 8.533 4.267 11.093-0.853 6.827-7.68 11.307-7.893 11.52-0.205 0.137-0.457 0.219-0.729 0.219-0.387 0-0.735-0.166-0.977-0.431l-0.001-0.001c-0.199-0.187-0.323-0.452-0.323-0.747s0.124-0.559 0.323-0.746h0.001c2.133-2.56 2.56-6.827-1.28-10.667-7.68-7.253-70.613-23.040-163.627-27.733-13.227-0.64-27.307-1.067-41.6-1.067-85.12 0-151.253 11.52-161.28 19.627l-2.56 2.133 1.92 2.773c4.907 7.253 34.56 14.72 52.053 17.707 0.622 0.225 1.060 0.807 1.067 1.493v0.001c-0.065 0.604-0.572 1.070-1.188 1.070-0.032 0-0.064-0.001-0.096-0.004h-0.209c-0.64 0-2.56-0.213-5.547-0.427h-0.213c-20.267-1.28-81.707-4.907-83.84-24.747-0.086-0.646-0.135-1.394-0.135-2.152 0-4.532 1.756-8.655 4.624-11.724l-0.009 0.010c16-17.92 75.093-26.667 180.907-26.667h3.84c141.013 0.64 210.773 26.88 222.507 39.467zM729.387 168.32c-0.151 0.044-0.324 0.069-0.504 0.069-0.367 0-0.709-0.105-0.998-0.287l0.008 0.005c-0.853-1.067-22.827-23.253-86.4-36.267-24.533-4.907-70.187-7.467-135.68-7.467-65.067 0-128 2.56-128.64 2.56v0c-0.63-0.017-1.15-0.464-1.278-1.058l-0.002-0.009c-0.007-0.054-0.011-0.117-0.011-0.18 0-0.585 0.352-1.088 0.856-1.31l0.009-0.004c0.64-0.213 66.133-15.36 154.453-15.36 0.646-0.002 1.411-0.003 2.177-0.003 42.791 0 84.712 3.726 125.456 10.872l-4.326-0.628c70.613 12.373 75.52 46.080 75.52 47.573 0 0.853-0.213 1.28-0.64 1.493zM1007.573 960h-991.147c-0.013 0-0.028 0-0.044 0-8.989 0-16.287-7.238-16.383-16.204v-991.582c0.024-8.96 7.293-16.214 16.256-16.214 0.060 0 0.12 0 0.18 0.001h991.351c0.013 0 0.028 0 0.044 0 8.989 0 16.287 7.238 16.383 16.204v991.582c-0.203 8.997-7.545 16.213-16.572 16.213-0.024 0-0.048 0-0.072 0h0.004zM32.64 927.573h604.587v-97.067h-604.587zM991.36-31.573h-958.72v829.867h958.72v-829.867zM991.36 830.72h-321.493v97.067h321.28v-97.067zM831.147 861.867c9.451 0.12 17.067 7.81 17.067 17.279 0 9.543-7.737 17.28-17.28 17.28s-17.279-7.736-17.28-17.279v0c0.060-9.557 7.821-17.28 17.386-17.28 0.038 0 0.075 0 0.113 0h-0.006zM741.76 861.867c9.451 0.12 17.067 7.81 17.067 17.279 0 9.543-7.737 17.28-17.28 17.28s-17.279-7.736-17.28-17.279v0c0.213-9.531 7.944-17.187 17.484-17.28h0.009zM920.533 861.867c9.451 0.12 17.067 7.81 17.067 17.279 0 9.543-7.737 17.28-17.28 17.28s-17.279-7.736-17.28-17.279v0c0.060-9.557 7.821-17.28 17.386-17.28 0.038 0 0.075 0 0.113 0h-0.006z" />
<glyph unicode="&#xe90d;" glyph-name="javascript" d="M1007.787 960h-991.573c-8.954 0-16.213-7.259-16.213-16.213v0-991.573c0-8.954 7.259-16.213 16.213-16.213v0h991.147c8.954 0 16.213 7.259 16.213 16.213v991.573c0.008 0.191 0.013 0.416 0.013 0.642 0 8.601-6.972 15.573-15.573 15.573-0.080 0-0.159-0.001-0.239-0.002h0.012zM32.853 927.573h604.587v-96.853h-604.587zM991.147-31.573h-958.293v829.867h958.72v-829.867zM991.147 830.72h-321.28v96.853h321.28zM848.64 879.36c0-9.426-7.832-17.067-17.493-17.067s-17.493 7.641-17.493 17.067c0 9.426 7.832 17.067 17.493 17.067s17.493-7.641 17.493-17.067zM759.467 879.36c0-9.426-7.832-17.067-17.493-17.067s-17.493 7.641-17.493 17.067c0 9.426 7.832 17.067 17.493 17.067s17.493-7.641 17.493-17.067zM937.813 879.36c0-9.426-7.832-17.067-17.493-17.067s-17.493 7.641-17.493 17.067c0 9.426 7.832 17.067 17.493 17.067s17.493-7.641 17.493-17.067zM308.907 292.267l-15.36-33.707c16.213-12.373 37.12-18.773 61.867-18.773 63.573 0 98.56 34.56 98.56 96.853v239.36h-47.787v-237.227c0-36.693-22.187-59.307-57.6-59.307-14.862 0.42-28.543 5.145-39.932 12.964l0.252-0.164zM639.573 438.613c-32.427 13.653-63.573 26.88-63.573 56.747 0 28.587 21.333 47.36 52.907 47.36 0.178 0.001 0.388 0.001 0.599 0.001 27.253 0 52.41-8.972 72.68-24.123l-0.319 0.228 21.333 33.28c-24.32 19.627-55.893 29.867-91.733 29.867-61.867 0-104.96-37.547-104.96-91.733 0-61.867 46.080-80.64 90.88-98.987 34.56-14.080 66.987-27.307 66.987-61.013 0-29.867-24.747-50.773-59.733-50.773-31.886 0.198-60.988 11.954-83.364 31.286l0.164-0.139-22.187-34.56c27.307-23.893 62.72-35.84 105.813-35.84 66.56 0 107.947 36.693 107.947 96 0.427 62.72-49.493 83.627-93.44 102.4z" />
<glyph unicode="&#xe90e;" glyph-name="linkedin" d="M1024 338.489v-378.311h-219.022v352.711c0 88.178-31.289 149.333-110.933 149.333-51.551-0.258-95.386-33.010-112.090-78.811l-0.266-0.833c-4.608-14.083-7.264-30.291-7.264-47.119 0-2.436 0.056-4.859 0.166-7.267l-0.012 0.342v-368.356h-219.022s2.844 598.756 0 659.911h219.022v-93.867c0-1.422-1.422-1.422-1.422-2.844h1.422v2.844c29.867 45.511 81.067 109.511 197.689 109.511 143.644 0 251.733-93.867 251.733-297.244zM123.733 938.667c-75.378 0-123.733-49.778-123.733-113.778s48.356-113.778 120.889-113.778h1.422c76.8 0 123.733 51.2 123.733 113.778s-46.933 113.778-122.311 113.778zM12.8-39.822h219.022v659.911h-219.022z" />
<glyph unicode="&#xe90f;" glyph-name="location" d="M778.989 847.61c-69.312 69.437-165.132 112.393-270.985 112.393s-201.673-42.956-270.979-112.387l-0.006-0.006c-134.868-134.868-149.854-384.624-34.966-539.473l234.771-339.668c16.258-22.82 42.627-37.524 72.429-37.524s56.171 14.704 72.246 37.253l0.184 0.271 234.771 339.668c114.888 154.849 97.405 407.102-37.463 539.473zM511.75 440.507c-77.593 0.449-140.32 63.454-140.32 141.11 0 10.17 1.076 20.089 3.12 29.649l-0.166-0.925c14.155 63.572 70.072 110.392 136.925 110.392 77.382 0 140.113-62.731 140.113-140.113 0-77.227-62.479-139.861-139.648-140.112h-0.024z" />
<glyph unicode="&#xe910;" glyph-name="net-developer" horiz-adv-x="1013" d="M845.867 445.44h-60.8l-0.427 1.707c-7.56 30.951-19.149 58.197-34.412 82.935l0.706-1.229-0.853 1.493 42.88 42.88c2.67 2.678 4.321 6.373 4.321 10.453s-1.651 7.776-4.321 10.454v0l-71.893 71.893c-2.719 2.577-6.401 4.161-10.453 4.161s-7.734-1.584-10.46-4.168l0.007 0.006-42.88-42.88-1.493 0.853c-23.502 14.658-50.762 26.256-79.797 33.315l-1.909 0.392-1.707 0.427v60.8c0 8.247-6.686 14.933-14.933 14.933v0h-101.76c-8.247 0-14.933-6.686-14.933-14.933v0-60.8l-1.707-0.427c-30.951-7.56-58.197-19.149-82.935-34.412l1.229 0.706-1.493-0.853-42.88 42.88c-2.678 2.67-6.373 4.321-10.453 4.321s-7.776-1.651-10.454-4.321v0l-71.893-71.893c-2.67-2.678-4.321-6.373-4.321-10.453s1.651-7.776 4.321-10.454v0l42.88-42.88-0.853-1.493c-14.658-23.502-26.256-50.762-33.315-79.797l-0.392-1.909-0.427-1.707h-60.587c-8.247 0-14.933-6.686-14.933-14.933v0-101.76c0-8.247 6.686-14.933 14.933-14.933v0h60.8l0.427-1.707c7.56-30.951 19.149-58.197 34.412-82.935l-0.706 1.229 0.853-1.493-42.88-42.88c-2.67-2.678-4.321-6.373-4.321-10.453s1.651-7.776 4.321-10.454v0l71.893-71.893c2.759-2.576 6.475-4.158 10.56-4.158s7.801 1.582 10.569 4.166l-0.009-0.008 42.88 42.88 1.493-0.853c23.502-14.658 50.762-26.256 79.797-33.315l1.909-0.392 1.707-0.427v-60.587c0-8.247 6.686-14.933 14.933-14.933v0h101.76c8.247 0 14.933 6.686 14.933 14.933v0 60.8l1.707 0.427c30.951 7.56 58.197 19.149 82.935 34.412l-1.229-0.706 1.493 0.853 42.88-42.88c2.678-2.67 6.373-4.321 10.453-4.321s7.776 1.651 10.454 4.321v0l71.893 71.893c2.67 2.678 4.321 6.373 4.321 10.453s-1.651 7.776-4.321 10.454v0l-42.88 42.88 0.853 1.493c14.658 23.502 26.256 50.762 33.315 79.797l0.392 1.909 0.427 1.707h60.373c8.247 0 14.933 6.686 14.933 14.933v0 101.76c-0.048 8.14-6.658 14.721-14.805 14.721-0.045 0-0.090 0-0.135-0.001h0.007zM831.147 343.68h-58.027c-7.198-0.083-13.165-5.245-14.491-12.066l-0.015-0.094c-6.878-36.421-20.744-68.718-40.223-96.829l0.543 0.829c-1.594-2.339-2.545-5.228-2.545-8.338 0-4.062 1.622-7.746 4.254-10.438l40.957-40.957-50.987-50.987-40.96 40.96c-2.651 2.683-6.33 4.345-10.398 4.345-3.136 0-6.041-0.988-8.422-2.669l0.046 0.031c-27.293-18.899-59.582-32.759-94.425-39.429l-1.575-0.251c-6.847-1.322-11.947-7.267-11.947-14.403 0-0.036 0-0.073 0-0.109v0.006-58.027h-72.107v58.027c-0.083 7.198-5.245 13.165-12.066 14.491l-0.094 0.015c-36.421 6.878-68.718 20.744-96.829 40.223l0.829-0.543c-2.339 1.594-5.228 2.545-8.338 2.545-4.062 0-7.746-1.622-10.438-4.254l-40.957-40.957-50.987 50.987 40.96 40.96c2.683 2.651 4.345 6.33 4.345 10.398 0 3.136-0.988 6.041-2.669 8.422l0.031-0.046c-18.899 27.293-32.759 59.582-39.429 94.425l-0.251 1.575c-1.341 6.915-7.309 12.077-14.498 12.16h-58.249v72.107h58.027c7.198 0.083 13.165 5.245 14.491 12.066l0.015 0.094c6.878 36.421 20.744 68.718 40.223 96.829l-0.543-0.829c1.594 2.339 2.545 5.228 2.545 8.338 0 4.062-1.622 7.746-4.254 10.438l-40.957 40.957 50.987 50.987 40.96-40.96c2.651-2.683 6.33-4.345 10.398-4.345 3.136 0 6.041 0.988 8.422 2.669l-0.046-0.031c27.293 18.899 59.582 32.759 94.425 39.429l1.575 0.251c6.915 1.341 12.077 7.309 12.16 14.498v58.036h72.107v-58.027c0.083-7.198 5.245-13.165 12.066-14.491l0.094-0.015c36.421-6.878 68.718-20.744 96.829-40.223l-0.829 0.543c2.339-1.594 5.228-2.545 8.338-2.545 4.062 0 7.746 1.622 10.438 4.254l40.957 40.957 50.987-50.987-40.96-40.96c-2.683-2.651-4.345-6.33-4.345-10.398 0-3.136 0.988-6.041 2.669-8.422l-0.031 0.046c18.899-27.293 32.759-59.582 39.429-94.425l0.251-1.575c1.322-6.847 7.267-11.947 14.403-11.947 0.036 0 0.073 0 0.109 0h58.021zM432.853 343.893v-34.773c-0.945-8.949-8.451-15.862-17.572-15.862-0.573 0-1.14 0.027-1.699 0.081l0.071-0.005h-36.693c-8.949 0.945-15.862 8.451-15.862 17.572 0 0.573 0.027 1.14 0.081 1.699l-0.005-0.071v137.813c0.945 8.949 8.451 15.862 17.572 15.862 0.573 0 1.14-0.027 1.699-0.081l-0.071 0.005h36.693c4.841-0.477 9.049-2.856 11.922-6.369l0.025-0.031c2.449-2.965 3.935-6.805 3.935-10.992 0-0.637-0.034-1.265-0.101-1.884l0.007 0.077v-31.36h29.44v34.347c-0.701 25.375-21.438 45.678-46.917 45.678-0.531 0-1.060-0.009-1.587-0.026l0.077 0.002h-36.48c-25.375-0.701-45.678-21.438-45.678-46.917 0-0.531 0.009-1.060 0.026-1.587l-0.002 0.077v-137.813c0.701-25.375 21.438-45.678 46.917-45.678 0.531 0 1.060 0.009 1.587 0.026l-0.077-0.002h36.693c25.375 0.701 45.678 21.438 45.678 46.917 0 0.531-0.009 1.060-0.026 1.587l0.002-0.077v31.573h-29.653zM647.893 495.573h-29.44v-50.56h-54.827v50.56h-29.44v-50.56h-33.707v-29.44h33.707v-71.68h-33.707v-29.44h33.707v-50.56h29.44v50.56h54.827v-50.56h29.44v50.56h33.707v29.44h-33.707v71.68h33.707v29.44h-33.707zM618.453 343.893h-54.827v71.68h54.827zM997.12 960h-980.907c-8.954 0-16.213-7.259-16.213-16.213v0-991.573c0-8.954 7.259-16.213 16.213-16.213v0h980.907c8.954 0 16.213 7.259 16.213 16.213v0 991.573c0 8.954-7.259 16.213-16.213 16.213v0zM32.427 927.573h598.187v-97.067h-598.187zM980.907-31.573h-948.48v829.867h948.48v-829.867zM980.907 830.72h-317.867v97.067h318.080v-97.067zM822.4 861.867c9.543 0 17.28 7.737 17.28 17.28s-7.737 17.28-17.28 17.28c-9.543 0-17.28-7.737-17.28-17.28v0c0.187-9.467 7.813-17.093 17.262-17.28h0.018zM734.080 861.867c9.543 0 17.28 7.737 17.28 17.28s-7.737 17.28-17.28 17.28c-9.543 0-17.28-7.737-17.28-17.28v0c0.119-9.495 7.785-17.161 17.269-17.28h0.011zM910.933 861.867c9.543 0 17.28 7.737 17.28 17.28s-7.737 17.28-17.28 17.28c-9.543 0-17.28-7.737-17.28-17.28v0c0-0.019 0-0.042 0-0.064 0-9.508 7.708-17.216 17.216-17.216 0.023 0 0.045 0 0.068 0h-0.003z" />
<glyph unicode="&#xe911;" glyph-name="node-js" d="M1007.787 960h-991.573c-8.954 0-16.213-7.259-16.213-16.213v0-991.573c0-8.954 7.259-16.213 16.213-16.213v0h991.147c8.954 0 16.213 7.259 16.213 16.213v991.573c0.008 0.191 0.013 0.416 0.013 0.642 0 8.601-6.972 15.573-15.573 15.573-0.080 0-0.159-0.001-0.239-0.002h0.012zM32.853 927.573h604.587v-96.853h-604.587zM991.147-31.573h-958.293v829.867h958.72v-829.867zM991.147 830.72h-321.28v96.853h321.28zM848.64 879.36c0-9.426-7.832-17.067-17.493-17.067s-17.493 7.641-17.493 17.067c0 9.426 7.832 17.067 17.493 17.067s17.493-7.641 17.493-17.067zM759.467 879.36c0-9.426-7.832-17.067-17.493-17.067s-17.493 7.641-17.493 17.067c0 9.426 7.832 17.067 17.493 17.067s17.493-7.641 17.493-17.067zM937.813 879.36c0-9.426-7.832-17.067-17.493-17.067s-17.493 7.641-17.493 17.067c0 9.426 7.832 17.067 17.493 17.067s17.493-7.641 17.493-17.067zM762.027 551.253l-208.213 120.32c-6.021 3.424-13.228 5.442-20.907 5.442s-14.885-2.018-21.119-5.553l0.213 0.111-208.213-120.32c-12.584-7.392-20.9-20.857-20.907-36.266v-240.214c0.007-15.409 8.323-28.875 20.71-36.16l0.197-0.107 54.613-31.573c26.027-12.8 35.413-12.8 46.933-12.8 37.973 0 59.733 23.040 59.733 63.147v237.653c0 2.121-1.719 3.84-3.84 3.84h-26.453c-2.121 0-3.84-1.719-3.84-3.84v0-237.227c0-0.005 0-0.010 0-0.016 0-10.243-5.411-19.222-13.531-24.234l-0.123-0.070c-10.24-6.4-24.32-5.973-39.253 1.707l-57.173 32.853c-2.563 1.44-4.267 4.141-4.267 7.241 0 0.004 0 0.009 0 0.013v-0.001 240.213c0 0.004 0 0.008 0 0.013 0 3.099 1.703 5.801 4.225 7.219l0.042 0.021 208.213 119.893c1.202 0.8 2.678 1.277 4.267 1.277s3.065-0.477 4.295-1.295l-0.029 0.018 208.213-119.893c2.496-1.515 4.164-4.179 4.266-7.239v-240.228c0-0.004 0-0.008 0-0.013 0-3.099-1.703-5.801-4.225-7.219l-0.042-0.021-208.213-120.32c-1.249-0.607-2.716-0.962-4.267-0.962s-3.018 0.355-4.326 0.988l0.059-0.026-53.333 31.573c-1.28 0.853-2.56 0.853-2.987 0.427-9.080-5.769-19.536-10.693-30.609-14.24l-0.965-0.267c-2.133-0.853-2.987-1.28-2.987-1.28s0.427-1.28 5.12-3.84l69.547-40.96c5.851-3.488 12.903-5.549 20.437-5.549 0.165 0 0.33 0.001 0.495 0.003h-0.025c7.688 0.13 14.872 2.17 21.135 5.664l-0.228-0.117 208.213 120.32c12.482 7.495 20.745 20.898 20.906 36.243v240.236c-0.813 15.146-9.27 28.15-21.553 35.302l-0.207 0.111zM524.373 354.133c-0.382 1.854-1.927 3.254-3.825 3.412l-0.015 0.001h-26.88c-2.121 0-3.84-1.719-3.84-3.84v0c0-34.133 18.773-75.093 108.373-75.093v-0.427c64.427 0 101.547 25.173 101.547 69.547 0 43.52-29.867 55.040-92.587 63.573s-72.96 12.373-72.96 30.293c0 13.227 5.547 31.147 55.467 31.147 43.947 0 60.16-9.813 66.987-39.68 0.536-1.675 2.034-2.885 3.829-2.986l0.011-0.001h26.88c0.031-0.001 0.068-0.001 0.104-0.001 1.142 0 2.169 0.493 2.879 1.278l0.003 0.003c0.749 0.779 1.227 1.822 1.28 2.977v0.010c-4.267 48.64-36.267 70.827-101.973 70.827-58.027 0-92.587-24.32-92.587-64.853 0-43.947 34.56-56.32 90.453-61.867 69.973-6.827 75.093-17.493 75.093-32 0-24.747-19.2-34.987-64.427-34.987-57.173-0.427-69.547 14.080-73.813 42.667z" />
<glyph unicode="&#xe912;" glyph-name="phone" horiz-adv-x="1023" d="M808.61 325.825c-21.072 21.882-46.195 33.498-72.94 33.498s-52.139-11.346-74.021-33.228l-68.348-68.078c-5.673 2.972-11.346 5.943-16.749 8.645-7.834 3.782-15.128 7.564-21.342 11.346-64.025 40.522-122.107 93.472-177.758 162.089-27.015 34.039-45.115 62.945-58.352 92.121 17.83 16.209 34.039 32.958 50.248 49.167 5.943 5.943 12.157 12.427 18.1 18.37 45.385 45.385 45.385 104.278 0 149.663l-59.163 59.163c-6.754 6.754-13.507 13.507-19.991 20.531-12.967 13.507-26.475 27.285-40.522 40.252-21.072 20.801-45.925 31.878-72.4 31.878s-51.869-11.076-73.481-31.878l-0.54-0.54-73.481-74.021c-26.371-25.903-43.726-60.908-46.967-99.92l-0.038-0.575c-5.133-63.215 13.507-121.837 27.555-160.469 35.119-94.552 87.258-182.080 165.331-275.822 91.958-110.109 204.779-199.435 332.808-262.627l5.959-2.659c49.707-23.503 116.164-51.328 190.185-56.191 4.593-0.27 9.185-0.54 13.507-0.54 49.978 0 91.851 17.83 124.809 53.49 0.27 0.54 0.54 0.54 0.81 1.081 11.346 13.507 24.313 25.934 37.821 39.172 9.185 8.915 18.91 18.1 28.096 27.825 21.342 22.152 32.688 48.087 32.688 74.831s-11.346 52.409-33.228 74.021zM885.873 98.36c-0.27 0-0.27-0.27 0 0-8.375-9.185-17.019-17.29-26.475-26.475-14.578-13.67-28.163-27.768-41.009-42.527l-0.594-0.697c-21.882-23.233-47.546-34.309-81.315-34.309-3.242 0-6.754 0-9.996 0.27-64.295 4.052-123.728 29.176-168.573 50.518-122.378 59.163-229.627 143.179-319.046 249.888-73.751 88.879-122.918 171.004-155.606 259.073-19.991 53.76-27.555 95.633-24.313 135.345 1.846 25.317 12.861 47.756 29.701 64.28l0.016 0.015 73.751 73.751c10.536 9.996 21.882 15.398 32.958 15.398 13.507 0 24.584-8.104 31.607-15.128l0.54-0.54c13.237-12.427 25.664-25.124 38.901-38.631 6.754-7.024 13.507-13.778 20.531-21.072l58.892-58.892c22.963-22.963 22.963-44.034 0-66.997l-18.64-18.64c-18.1-18.64-35.39-35.93-54.3-52.679-0.54-0.54-0.81-0.54-1.081-1.081-18.64-18.64-15.128-36.74-11.346-49.167l0.54-1.891c15.398-37.281 37.010-72.13 69.698-114.003l0.27-0.27c59.703-73.481 122.648-130.752 191.806-174.516 7.18-4.568 15.85-9.424 24.78-13.832l1.695-0.756c7.834-3.782 15.128-7.564 21.342-11.346 0.767-0.541 1.651-1.079 2.57-1.559l0.131-0.062c6.174-3.378 13.522-5.375 21.333-5.403h0.008c17.83 0 29.176 11.346 32.958 14.858l74.021 74.021c7.294 7.294 18.91 16.209 32.688 16.209s24.313-8.375 31.067-15.669l119.406-119.406c23.233-22.422 23.233-45.115 1.081-68.078zM552.779 716.731c115.84-20.5 205.885-110.545 226.139-224.71l0.246-1.675c2.329-13.873 14.249-24.313 28.608-24.313 0.010 0 0.020 0 0.030 0h-0.002c16.233 0.496 29.204 13.774 29.204 30.081 0 1.491-0.108 2.957-0.318 4.39l0.020-0.163c-24.776 140.184-133.747 249.155-271.906 273.634l-2.025 0.297c-1.43 0.246-3.076 0.386-4.756 0.386-14.404 0-26.397-10.323-28.984-23.975l-0.029-0.184c-0.313-1.595-0.493-3.43-0.493-5.307 0-14.31 10.427-26.184 24.098-28.439l0.167-0.023zM1022.028 508.446c-40.88 230.837-220.312 410.269-447.81 450.658l-3.339 0.491c-1.421 0.246-3.058 0.386-4.728 0.386-16.103 0-29.157-13.054-29.157-29.157 0-14.433 10.487-26.417 24.257-28.747l0.172-0.024c206.27-36.75 366.582-197.062 402.888-400.333l0.444-2.999c2.329-13.873 14.249-24.313 28.608-24.313 0.010 0 0.020 0 0.030 0h-0.002c1.753 0.051 3.427 0.245 5.053 0.572l-0.19-0.032c13.815 2.298 24.218 14.162 24.218 28.454 0 1.783-0.162 3.528-0.472 5.221l0.027-0.177z" />
<glyph unicode="&#xe913;" glyph-name="python" horiz-adv-x="1013" d="M997.12 960h-980.907c-8.954 0-16.213-7.259-16.213-16.213v0-991.573c0-8.954 7.259-16.213 16.213-16.213v0h980.907c8.954 0 16.213 7.259 16.213 16.213v0 991.573c0 8.954-7.259 16.213-16.213 16.213v0zM32.427 927.573h598.187v-97.067h-598.187zM980.907-31.573h-948.48v829.867h948.48v-829.867zM980.907 830.72h-317.867v97.067h318.080v-97.067zM822.4 861.867c9.543 0 17.28 7.737 17.28 17.28s-7.737 17.28-17.28 17.28c-9.543 0-17.28-7.737-17.28-17.28v0c0.187-9.467 7.813-17.093 17.262-17.28h0.018zM734.080 861.867c9.543 0 17.28 7.737 17.28 17.28s-7.737 17.28-17.28 17.28c-9.543 0-17.28-7.737-17.28-17.28v0c0.119-9.495 7.785-17.161 17.269-17.28h0.011zM910.933 861.867c9.543 0 17.28 7.737 17.28 17.28s-7.737 17.28-17.28 17.28c-9.543 0-17.28-7.737-17.28-17.28v0c0-0.019 0-0.042 0-0.064 0-9.508 7.708-17.216 17.216-17.216 0.023 0 0.045 0 0.068 0h-0.003zM502.827 560c0-8.365-6.781-15.147-15.147-15.147s-15.147 6.781-15.147 15.147c0 8.365 6.781 15.147 15.147 15.147v0c8.351-0.036 15.11-6.796 15.147-15.143v-0.003zM579.627 205.44c0-8.365-6.781-15.147-15.147-15.147s-15.147 6.781-15.147 15.147c0 8.365 6.781 15.147 15.147 15.147v0c8.351-0.036 15.11-6.796 15.147-15.143v-0.003zM721.067 504.747h-74.667v74.667c0 38.4-53.547 68.48-122.027 68.48s-122.027-30.080-122.027-68.48v-74.667h-74.667c-38.4 0-68.48-53.547-68.48-122.027s30.080-122.027 68.48-122.027h74.667v-74.667c0-38.4 53.547-68.48 122.027-68.48s122.027 30.080 122.027 68.48v74.667h74.667c38.4 0 68.48 53.547 68.48 122.027s-30.080 122.027-68.48 122.027zM390.187 327.68v-32.853h-65.28l-3.413 2.347c-11.307 7.467-28.16 36.267-28.16 85.547s16.853 78.080 28.16 85.547l3.413 2.347h199.253c9.426 0 17.067 7.641 17.067 17.067v0 11.947c0 9.426-7.641 17.067-17.067 17.067v0h-87.893v65.28l2.347 3.627c7.467 11.307 36.267 28.16 85.547 28.16s78.080-16.853 85.547-28.16l2.347-3.413v-144.213c0-17.673-14.327-32-32-32v0h-111.787c-43.114-0.206-77.996-35.162-78.080-78.285v-0.008zM727.040 297.173l-3.413-2.347h-199.253c-9.426 0-17.067-7.641-17.067-17.067v0-11.947c0-9.426 7.641-17.067 17.067-17.067v0h87.893v-65.28l-2.347-3.413c-7.467-11.307-36.267-28.16-85.547-28.16s-78.080 16.853-85.547 28.16l-2.347 3.627v144.213c0 17.673 14.327 32 32 32v0h111.787c43.113 0.024 78.056 34.967 78.080 78.078v32.642h65.28l3.413-2.347c11.307-7.467 28.16-36.267 28.16-85.547s-16.853-78.080-28.16-85.547z" />
<glyph unicode="&#xe914;" glyph-name="ruby-essential" d="M1007.787 960h-991.573c-8.954 0-16.213-7.259-16.213-16.213v0-991.573c0-8.954 7.259-16.213 16.213-16.213v0h991.147c8.954 0 16.213 7.259 16.213 16.213v991.573c0.008 0.191 0.013 0.416 0.013 0.642 0 8.601-6.972 15.573-15.573 15.573-0.080 0-0.159-0.001-0.239-0.002h0.012zM32.853 927.573h604.587v-96.853h-604.587zM991.147-31.573h-958.293v829.867h958.72v-829.867zM991.147 830.72h-321.28v96.853h321.28zM848.64 879.36c0-9.426-7.832-17.067-17.493-17.067s-17.493 7.641-17.493 17.067c0 9.426 7.832 17.067 17.493 17.067s17.493-7.641 17.493-17.067zM759.467 879.36c0-9.426-7.832-17.067-17.493-17.067s-17.493 7.641-17.493 17.067c0 9.426 7.832 17.067 17.493 17.067s17.493-7.641 17.493-17.067zM937.813 879.36c0-9.426-7.832-17.067-17.493-17.067s-17.493 7.641-17.493 17.067c0 9.426 7.832 17.067 17.493 17.067s17.493-7.641 17.493-17.067zM209.92 476.16c15.963 2.444 34.378 3.84 53.12 3.84 0.075 0 0.15 0 0.226 0h-0.012c2.441 0.234 5.278 0.368 8.146 0.368 18.219 0 35.18-5.389 49.374-14.66l-0.347 0.212c9.985-8.129 16.311-20.421 16.311-34.19 0-1.031-0.035-2.053-0.105-3.067l0.008 0.137c-0.299-19.987-13.047-36.921-30.821-43.416l-0.326-0.104v-0.853c12.491-6.472 21.358-18.441 23.438-32.616l0.029-0.238c5.547-20.053 11.093-43.093 14.507-49.92h-40.96c-4.907 11.589-9.176 25.297-12.119 39.491l-0.255 1.469c-4.693 22.187-12.373 28.16-28.587 28.587h-11.947v-69.547h-39.68v174.507zM249.6 400.213h15.787c20.053 0 31.573 9.813 31.573 25.6s-11.093 24.32-29.44 24.747c-6.323-0.002-12.537-0.467-18.609-1.364l0.689 0.084zM404.053 478.72v-101.547c0-30.293 11.52-46.080 32-46.080s32.427 14.507 32.427 46.080v101.547h39.68v-98.987c0-54.613-27.307-80.64-73.813-80.64-44.373 0-70.827 24.747-70.827 81.067v98.56zM542.72 476.16c15.452 2.444 33.27 3.84 51.414 3.84 0.075 0 0.15 0 0.224 0h-0.012c2.69 0.268 5.814 0.421 8.973 0.421 15.711 0 30.538-3.782 43.62-10.486l-0.54 0.251c12.745-6.426 21.334-19.409 21.334-34.399 0-0.057 0-0.113 0-0.17v0.009c-0.313-17.844-12.357-32.791-28.733-37.478l-0.28-0.069v-0.427c20.117-4.28 34.99-21.898 34.99-42.99 0-0.187-0.001-0.373-0.003-0.559v0.028c-0.051-15.2-7.173-28.727-18.245-37.47l-0.101-0.077c-16.49-10.292-36.516-16.394-57.967-16.394-4.079 0-8.106 0.221-12.071 0.651l0.491-0.043c-0.078 0-0.169 0-0.261 0-15.096 0-29.974 0.93-44.581 2.736l1.748-0.176v172.8zM582.4 408.747h13.227c20.907 0 32.427 8.533 32.427 21.76s-10.24 20.48-28.587 20.48c-5.547 0-11.52-0.427-17.067-0.853zM582.4 330.24c3.072-0.362 6.63-0.569 10.237-0.569 1.802 0 3.592 0.052 5.369 0.153l-0.246-0.011c17.92 0 34.133 6.827 34.133 25.6 0 17.92-15.787 24.747-35.84 24.747h-13.653v-49.92zM733.013 302.080v72.533l-55.893 104.107h45.653l17.92-42.667c5.547-12.8 9.387-22.187 13.653-33.707h0.427c3.84 11.093 8.107 21.333 13.227 33.707l17.92 42.667h44.8l-58.027-102.827v-73.813z" />
<glyph unicode="&#xe915;" glyph-name="skype" horiz-adv-x="1025" d="M946.635 295.585c18.954 48.711 29.937 105.094 29.937 164.043 0 256.486-207.923 464.409-464.409 464.409-58.428 0-114.337-10.79-165.841-30.486l3.184 1.070c-36.9 40.282-89.738 65.445-148.453 65.445-111.062 0-201.095-90.033-201.095-201.095 0-61.634 27.728-116.791 71.389-153.679l0.298-0.245c-15.037-43.661-23.72-93.972-23.72-146.311 0-255.764 207.338-463.102 463.102-463.102 53.246 0 104.394 8.986 152.009 25.525l-3.251-0.983c36.888-51.384 96.461-84.461 163.76-84.461 111.002 0 200.986 89.985 200.986 200.986 0 64.423-30.31 121.767-77.449 158.548l-0.447 0.335zM822.959-20.686c-57.524 0.201-107.784 31.112-135.262 77.186l-0.4 0.724c-3.849 6.515-10.811 10.832-18.787 10.896h-0.009c-2.749-0.060-5.362-0.554-7.803-1.416l0.175 0.054c-44.283-17.329-95.555-27.372-149.173-27.372-232.053 0-420.17 188.116-420.17 420.17 0 0.103 0 0.207 0 0.31v-0.016c0.117 52.186 9.8 102.075 27.385 148.056l-0.961-2.86c0.891 2.269 1.407 4.896 1.407 7.644 0 7.311-3.655 13.768-9.236 17.644l-0.071 0.046c-40.349 28.912-66.328 75.653-66.328 128.462 0 87.020 70.544 157.564 157.564 157.564 50.481 0 95.417-23.739 124.253-60.663l0.262-0.349c3.992-5.196 10.208-8.512 17.198-8.512 3.037 0 5.927 0.626 8.549 1.755l-0.14-0.054c47.559 20.243 102.882 32.009 160.952 32.009 232.324 0 420.66-188.336 420.66-420.66 0-58.949-12.125-115.066-34.018-165.993l1.046 2.735c-1.078-2.494-1.705-5.399-1.705-8.45 0-7.603 3.894-14.297 9.796-18.196l0.081-0.051c43.71-28.585 72.188-77.3 72.188-132.666 0-87.069-70.428-157.688-157.424-157.998h-0.030zM544.281 528.226c-150.917 29.421-160.451 75.458-124.22 107.603s144.106 46.583 174.617-9.807c29.421-54.483 50.396-76.82 90.713-67.014 38.683 9.262 44.131 62.927 28.059 94.8-13.076 25.879-72.734 92.076-189.872 92.076s-239.996-43.314-239.996-150.644 111.689-155.003 219.292-170.258 132.665-61.565 118.772-95.072-59.931-65.652-129.941-58.569-102.155 65.379-111.689 95.072c-9.262 28.331-41.952 32.145-57.207 30.783s-64.289-20.976-41.952-89.351 95.072-122.858 240.268-122.858 230.461 89.351 230.461 174.617c-0.545 84.72-56.389 139.203-207.306 168.624z" />
<glyph unicode="&#xe916;" glyph-name="spec-variety" d="M1007.573 960h-991.147c-0.013 0-0.028 0-0.044 0-8.989 0-16.287-7.238-16.383-16.204v-991.582c0.024-8.96 7.293-16.214 16.256-16.214 0.060 0 0.12 0 0.18 0.001h991.351c0.013 0 0.028 0 0.044 0 8.989 0 16.287 7.238 16.383 16.204v991.582c-0.203 8.997-7.545 16.213-16.572 16.213-0.024 0-0.048 0-0.072 0h0.004zM32.64 927.573h604.587v-97.067h-604.587zM991.36-31.573h-958.72v829.867h958.72v-829.867zM991.36 830.72h-321.493v97.067h321.28v-97.067zM831.147 861.867c9.451 0.12 17.067 7.81 17.067 17.279 0 9.543-7.737 17.28-17.28 17.28s-17.279-7.736-17.28-17.279v0c0.060-9.557 7.821-17.28 17.386-17.28 0.038 0 0.075 0 0.113 0h-0.006zM741.76 861.867c9.451 0.12 17.067 7.81 17.067 17.279 0 9.543-7.737 17.28-17.28 17.28s-17.279-7.736-17.28-17.279v0c0.213-9.531 7.944-17.187 17.484-17.28h0.009zM920.533 861.867c9.451 0.12 17.067 7.81 17.067 17.279 0 9.543-7.737 17.28-17.28 17.28s-17.279-7.736-17.28-17.279v0c0.060-9.557 7.821-17.28 17.386-17.28 0.038 0 0.075 0 0.113 0h-0.006zM287.36 674.56v-145.067h-145.067v145.067h145.067zM321.493 708.693h-213.333v-213.333h213.333v213.333zM108.16 462.933h213.333v-34.133h-213.333v34.133zM590.080 674.56v-145.067h-145.067v145.067h145.067zM624.213 708.693h-213.333v-213.333h213.333v213.333zM410.88 462.933h213.333v-34.133h-213.333v34.133zM893.013 674.56v-145.067h-145.067v145.067h145.067zM927.147 708.693h-213.333v-213.333h213.333v213.333zM713.813 462.933h213.333v-34.133h-213.333v34.133zM287.36 322.56v-145.067h-145.067v145.067h145.067zM321.493 356.693h-213.333v-213.333h213.333v213.333zM108.16 110.933h213.333v-34.133h-213.333v34.133zM590.080 322.56v-145.067h-145.067v145.067h145.067zM624.213 356.693h-213.333v-213.333h213.333v213.333zM410.88 110.933h213.333v-34.133h-213.333v34.133zM893.013 322.56v-145.067h-145.067v145.067h145.067zM927.147 356.693h-213.333v-213.333h213.333v213.333zM713.813 110.933h213.333v-34.133h-213.333v34.133z" />
<glyph unicode="&#xe917;" glyph-name="testprovider" horiz-adv-x="1013" d="M997.12 960h-980.907c-8.954 0-16.213-7.259-16.213-16.213v0-991.573c0-8.954 7.259-16.213 16.213-16.213v0h980.907c8.954 0 16.213 7.259 16.213 16.213v0 991.573c0 8.954-7.259 16.213-16.213 16.213v0zM32.427 927.573h598.187v-97.067h-598.187zM980.907-31.573h-948.48v829.867h948.48v-829.867zM980.907 830.72h-317.867v97.067h318.080v-97.067zM822.4 861.867c9.543 0 17.28 7.737 17.28 17.28s-7.737 17.28-17.28 17.28c-9.543 0-17.28-7.737-17.28-17.28v0c0.187-9.467 7.813-17.093 17.262-17.28h0.018zM734.080 861.867c9.543 0 17.28 7.737 17.28 17.28s-7.737 17.28-17.28 17.28c-9.543 0-17.28-7.737-17.28-17.28v0c0.119-9.495 7.785-17.161 17.269-17.28h0.011zM910.933 861.867c9.543 0 17.28 7.737 17.28 17.28s-7.737 17.28-17.28 17.28c-9.543 0-17.28-7.737-17.28-17.28v0c0-0.019 0-0.042 0-0.064 0-9.508 7.708-17.216 17.216-17.216 0.023 0 0.045 0 0.068 0h-0.003zM707.627 631.893v-496.427l-401.92 106.027v304.213l401.92 86.187zM734.933 665.6l-456.533-97.92v-347.093l456.533-120.32v565.333zM456.32 291.413l-118.4 133.973 7.893 6.4 102.4-68.907 8.107-71.467zM456.32 291.413l161.067 212.907 32.213 10.453-146.987-279.253-46.293 55.893z" />
<glyph unicode="&#xe918;" glyph-name="twitter" d="M1024.525 769.641c-1.056 1.119-2.549 1.816-4.205 1.816-0.854 0-1.665-0.185-2.395-0.518l0.036 0.015c-27.648-12.611-59.817-22.647-93.414-28.531l-2.422-0.351c34.869 25.981 61.029 61.904 74.422 103.553l0.409 1.473c0 2.626 0 3.938-1.313 5.251-0.694 0.622-1.615 1.003-2.626 1.003s-1.932-0.381-2.629-1.006l0.004 0.003c-36.639-22.413-79.251-39.68-124.661-49.406l-2.683-0.481c-38.925 40.451-93.525 65.579-153.994 65.579-117.966 0-213.596-95.63-213.596-213.596 0-0.117 0-0.233 0-0.35v0.018c-0.001-0.244-0.002-0.532-0.002-0.821 0-14.57 1.434-28.806 4.169-42.573l-0.229 1.383c-169.298 11.115-317.702 92.177-417.97 214.274l-0.819 1.028c-1.313 1.313-2.626 2.626-3.938 1.313s-2.626-1.313-3.938-2.626c-17.936-30.936-28.622-68.018-28.882-107.575v-0.076c0.202-67.215 31.23-127.141 79.681-166.413l0.401-0.315c-27.888 3.549-53.165 11.887-75.981 24.198l1.15-0.567c-0.694 0.622-1.615 1.003-2.626 1.003s-1.932-0.381-2.629-1.006l0.004 0.003c-1.313-1.313-2.626-2.626-2.626-3.938v-2.626c0.012-95.053 62.225-175.571 148.152-203.070l1.509-0.417c-9.653-1.798-20.76-2.826-32.107-2.826-13.74 0-27.128 1.508-40.007 4.367l1.222-0.228c-0.249 0.028-0.539 0.044-0.832 0.044-1.65 0-3.181-0.507-4.447-1.374l0.027 0.017c-1.313-1.313-1.313-2.626-1.313-5.251 26.204-81.11 97.947-140.037 184.362-146.988l0.746-0.048c-66.746-50.014-150.946-80.087-242.171-80.087-0.708 0-1.416 0.002-2.123 0.005h0.109c-17.067 0-32.821 1.313-48.574 2.626-2.626 0-5.251-1.313-5.251-3.938-0.285-0.6-0.451-1.303-0.451-2.045 0-2.042 1.26-3.789 3.044-4.508l0.033-0.012c90.838-59.27 202.038-94.523 321.471-94.523 0.060 0 0.12 0 0.179 0h-0.009c374.154 0 597.333 304.574 597.333 597.333v24.944c40.657 29.472 74.708 65.195 101.461 106.121l0.939 1.53c1.313 5.251 1.313 7.877 0 9.19z" />
<glyph unicode="&#xe919;" glyph-name="video-courses" horiz-adv-x="1013" d="M997.12 960h-980.907c-8.954 0-16.213-7.259-16.213-16.213v0-991.573c0-8.954 7.259-16.213 16.213-16.213v0h980.907c8.954 0 16.213 7.259 16.213 16.213v0 991.573c0 8.954-7.259 16.213-16.213 16.213v0zM32.427 927.573h598.187v-97.067h-598.187zM980.907-31.573h-948.48v829.867h948.48v-829.867zM980.907 830.72h-317.867v97.067h318.080v-97.067zM822.4 861.867c9.543 0 17.28 7.737 17.28 17.28s-7.737 17.28-17.28 17.28c-9.543 0-17.28-7.737-17.28-17.28v0c0.187-9.467 7.813-17.093 17.262-17.28h0.018zM734.080 861.867c9.543 0 17.28 7.737 17.28 17.28s-7.737 17.28-17.28 17.28c-9.543 0-17.28-7.737-17.28-17.28v0c0.119-9.495 7.785-17.161 17.269-17.28h0.011zM910.933 861.867c9.543 0 17.28 7.737 17.28 17.28s-7.737 17.28-17.28 17.28c-9.543 0-17.28-7.737-17.28-17.28v0c0-0.019 0-0.042 0-0.064 0-9.508 7.708-17.216 17.216-17.216 0.023 0 0.045 0 0.068 0h-0.003zM612.053 397.653l-142.507 97.493c-2.334 1.584-5.214 2.529-8.315 2.529-2.163 0-4.218-0.46-6.073-1.287l0.095 0.038c-4.701-2.326-7.879-7.084-7.893-12.585v-195.202c0.054-5.717 3.512-10.614 8.443-12.765l0.091-0.035c1.709-0.651 3.685-1.040 5.749-1.067h0.011c0.094-0.002 0.205-0.004 0.316-0.004 2.933 0 5.641 0.962 7.826 2.589l-0.035-0.025 142.080 97.067c3.596 2.507 6.019 6.483 6.396 11.039l0.004 0.054c0.006 0.147 0.009 0.321 0.009 0.495 0 4.834-2.436 9.099-6.147 11.634l-0.048 0.031zM578.773 386.133l-102.827-70.613v141.013zM506.667 647.467c-144 0-261.333-117.333-261.333-261.333s117.333-261.333 261.333-261.333 261.333 117.333 261.333 261.333-117.333 261.333-261.333 261.333zM506.667 153.173c-128.66 0-232.96 104.3-232.96 232.96s104.3 232.96 232.96 232.96c128.66 0 232.96-104.3 232.96-232.96v0c-0.17-128.592-104.368-232.79-232.944-232.96h-0.016z" />
<glyph unicode="&#xe91a;" glyph-name="vk" d="M884.18 370.041c34.133-33.291 69.952-64.474 100.293-101.136 13.191-15.18 25.066-32.162 35.059-50.325l0.76-1.507c13.906-26.97 1.264-56.467-22.756-57.732h-149.597c-38.769-3.371-69.109 12.221-95.236 38.769-20.649 21.070-40.033 43.404-59.839 65.317-7.937 9.023-16.786 16.936-26.492 23.704l-0.478 0.315c-20.227 13.063-37.926 9.271-49.725-12.221s-14.749-45.511-15.592-69.952c-1.686-35.398-12.221-44.247-47.618-45.933-75.43-3.371-147.068 8.007-214.071 45.933-58.574 33.712-104.086 80.909-144.119 134.848-77.116 104.507-136.112 219.549-189.63 337.541-11.799 26.548-3.371 40.876 26.127 41.297 48.882 0.843 97.343 0.843 146.226 0 19.806-0.421 32.869-11.799 40.454-30.341 28.431-70.25 61.67-130.742 100.979-186.657l-1.951 2.927c10.956-15.17 21.913-30.341 37.505-41.297 17.277-11.799 30.341-8.007 38.769 11.378 4.646 11.287 7.672 24.36 8.415 38.042l0.013 0.306c1.774 17.045 2.787 36.827 2.787 56.846 0 27.658-1.932 54.864-5.668 81.492l0.353-3.069c-4.214 28.234-19.806 46.354-48.040 51.411-14.328 2.528-12.221 8.007-5.057 16.013 11.799 13.906 23.177 22.756 45.933 22.756h168.981c26.548-5.057 32.448-17.277 36.24-43.826v-187.523c-0.421-10.535 5.057-41.297 24.020-48.040 14.749-5.057 24.863 7.164 33.712 16.435 40.454 42.983 69.109 93.551 95.236 146.226 11.378 23.177 21.491 47.197 30.762 71.216 7.164 17.699 18.12 26.548 38.347 26.127h162.66c0.71 0.022 1.544 0.035 2.382 0.035 4.215 0 8.356-0.319 12.399-0.934l-0.453 0.057c27.391-4.635 34.976-16.435 26.548-43.404-13.485-42.14-39.19-77.116-64.474-112.092-26.97-37.505-56.046-73.745-83.016-111.671-24.020-34.133-21.913-51.411 8.849-81.33z" />
<glyph unicode="&#xe91b;" glyph-name="youtube" d="M983.948 747.355c-36.748 43.768-105.29 61.935-235.355 61.935h-473.187c-133.368 0-202.735-18.994-239.484-65.652-35.923-45.419-35.923-112.723-35.923-206.039v-177.135c0-180.026 42.529-271.69 275.406-271.69h473.187c113.135 0 175.484 15.69 216.361 54.503 41.703 39.639 59.458 104.877 59.458 217.187v177.135c-0.413 97.858-3.303 165.574-40.465 209.755zM657.342 424.465l-214.71-112.31c-4.437-2.338-9.696-3.712-15.276-3.716h-0.001c-0.023 0-0.050 0-0.078 0-6.261 0-12.090 1.848-16.971 5.028l0.12-0.073c-9.694 5.757-16.093 16.169-16.103 28.076v223.796c0.013 11.81 6.223 22.167 15.551 27.996l0.139 0.081c4.865 3.121 10.802 4.974 17.171 4.974 5.501 0 10.68-1.383 15.206-3.82l-0.171 0.084 214.71-111.484c10.58-5.704 17.669-16.673 17.755-29.304v-0.012c0.013-0.34 0.021-0.738 0.021-1.139 0-12.25-6.982-22.869-17.185-28.095l-0.178-0.083z" />
<glyph unicode="&#xe91c;" glyph-name="instagram" d="M653.6 707c-93.8 2-187.8 2-281.6 0-73.4-1.6-119-45.8-121-118.8-2.6-93.2-2.6-186.6 0-279.8 2-73 47.6-116.2 121-119 46.8-2 93.4-0.6 140-0.6 47.2 0 94.6-1.4 141.6 0.4 74 2.8 119.4 46.8 121.2 120.8 2.2 92 2.2 184.2 0 276.4-1.8 73.8-47.2 119-121.2 120.6zM512 284c-90.6 0-164 73.4-164 164s73.4 164 164 164 164-73.4 164-164-73.4-164-164-164zM685.6 580.4c-21.6 0-39 17.4-39 39s17.4 39 39 39 39-17.4 39-39-17.4-39-39-39zM619.6 448c0-59.426-48.174-107.6-107.6-107.6s-107.6 48.174-107.6 107.6c0 59.426 48.174 107.6 107.6 107.6s107.6-48.174 107.6-107.6zM1006.4 776.8c-9.4 87.4-78.2 156.4-165.6 165.6-219 23.4-438.6 23.4-657.6 0-87.4-9.2-156.4-78.2-165.6-165.6-23.4-219-23.4-438.6 0-657.6 9.4-87.4 78.2-156.4 165.6-165.6 219-23.4 438.6-23.4 657.6 0 87.4 9.4 156.4 78.2 165.6 165.6 23.4 219 23.4 438.6 0 657.6zM831.4 299.2c-3-93.4-70.4-162.4-163.8-165.8-103.2-3.8-206.8-3.8-310 0-93.4 3.6-157.8 72.8-164 166.2-0.6 8-2.2 16.2-3.4 24.2 0 82.8 0 165.6 0 248.4 2.2 15 3.8 30.2 6.4 45.2 15.4 84.6 75.4 142.4 161 145.2 103.2 3.6 206.8 3.8 310 0 93.4-3.4 160.8-72.4 163.8-165.8 3.2-99.2 3.2-198.4 0-297.6z" />
</font>
</defs>
</svg>
